<svg id="visual" viewBox="0 0 900 600" width="900" height="600" xmlns="http://www.w3.org/2000/svg" xmlns:xlink="http://www.w3.org/1999/xlink" version="1.1"><path d="M0 55L13.7 54C27.3 53 54.7 51 82 53C109.3 55 136.7 61 163.8 74C191 87 218 107 245.2 112C272.3 117 299.7 107 327 102C354.3 97 381.7 97 409 91C436.3 85 463.7 73 491 72C518.3 71 545.7 81 573 81C600.3 81 627.7 71 654.8 73C682 75 709 89 736.2 99C763.3 109 790.7 115 818 114C845.3 113 872.7 105 886.3 101L900 97L900 0L886.3 0C872.7 0 845.3 0 818 0C790.7 0 763.3 0 736.2 0C709 0 682 0 654.8 0C627.7 0 600.3 0 573 0C545.7 0 518.3 0 491 0C463.7 0 436.3 0 409 0C381.7 0 354.3 0 327 0C299.7 0 272.3 0 245.2 0C218 0 191 0 163.8 0C136.7 0 109.3 0 82 0C54.7 0 27.3 0 13.7 0L0 0Z" fill="#f5f7ff"></path><path d="M0 157L13.7 149C27.3 141 54.7 125 82 116C109.3 107 136.7 105 163.8 120C191 135 218 167 245.2 179C272.3 191 299.7 183 327 181C354.3 179 381.7 183 409 179C436.3 175 463.7 163 491 164C518.3 165 545.7 179 573 174C600.3 169 627.7 145 654.8 143C682 141 709 161 736.2 177C763.3 193 790.7 205 818 198C845.3 191 872.7 165 886.3 152L900 139L900 95L886.3 99C872.7 103 845.3 111 818 112C790.7 113 763.3 107 736.2 97C709 87 682 73 654.8 71C627.7 69 600.3 79 573 79C545.7 79 518.3 69 491 70C463.7 71 436.3 83 409 89C381.7 95 354.3 95 327 100C299.7 105 272.3 115 245.2 110C218 105 191 85 163.8 72C136.7 59 109.3 53 82 51C54.7 49 27.3 51 13.7 52L0 53Z" fill="#e5ebff"></path><path d="M0 253L13.7 249C27.3 245 54.7 237 82 239C109.3 241 136.7 253 163.8 261C191 269 218 273 245.2 283C272.3 293 299.7 309 327 303C354.3 297 381.7 269 409 252C436.3 235 463.7 229 491 229C518.3 229 545.7 235 573 245C600.3 255 627.7 269 654.8 282C682 295 709 307 736.2 305C763.3 303 790.7 287 818 270C845.3 253 872.7 235 886.3 226L900 217L900 137L886.3 150C872.7 163 845.3 189 818 196C790.7 203 763.3 191 736.2 175C709 159 682 139 654.8 141C627.7 143 600.3 167 573 172C545.7 177 518.3 163 491 162C463.7 161 436.3 173 409 177C381.7 181 354.3 177 327 179C299.7 181 272.3 189 245.2 177C218 165 191 133 163.8 118C136.7 103 109.3 105 82 114C54.7 123 27.3 139 13.7 147L0 155Z" fill="#d3e0ff"></path><path d="M0 463L13.7 447C27.3 431 54.7 399 82 388C109.3 377 136.7 387 163.8 393C191 399 218 401 245.2 413C272.3 425 299.7 447 327 464C354.3 481 381.7 493 409 486C436.3 479 463.7 453 491 427C518.3 401 545.7 375 573 368C600.3 361 627.7 373 654.8 396C682 419 709 453 736.2 454C763.3 455 790.7 423 818 400C845.3 377 872.7 363 886.3 356L900 349L900 215L886.3 224C872.7 233 845.3 251 818 268C790.7 285 763.3 301 736.2 303C709 305 682 293 654.8 280C627.7 267 600.3 253 573 243C545.7 233 518.3 227 491 227C463.7 227 436.3 233 409 250C381.7 267 354.3 295 327 301C299.7 307 272.3 291 245.2 281C218 271 191 267 163.8 259C136.7 251 109.3 239 82 237C54.7 235 27.3 243 13.7 247L0 251Z" fill="#bfd5ff"></path><path d="M0 601L13.7 601C27.3 601 54.7 601 82 601C109.3 601 136.7 601 163.8 601C191 601 218 601 245.2 601C272.3 601 299.7 601 327 601C354.3 601 381.7 601 409 601C436.3 601 463.7 601 491 601C518.3 601 545.7 601 573 601C600.3 601 627.7 601 654.8 601C682 601 709 601 736.2 601C763.3 601 790.7 601 818 601C845.3 601 872.7 601 886.3 601L900 601L900 347L886.3 354C872.7 361 845.3 375 818 398C790.7 421 763.3 453 736.2 452C709 451 682 417 654.8 394C627.7 371 600.3 359 573 366C545.7 373 518.3 399 491 425C463.7 451 436.3 477 409 484C381.7 491 354.3 479 327 462C299.7 445 272.3 423 245.2 411C218 399 191 397 163.8 391C136.7 385 109.3 375 82 386C54.7 397 27.3 429 13.7 445L0 461Z" fill="#a8cbff"></path></svg>